<?xml version="1.0" encoding="UTF-8" ?>
<!DOCTYPE svg PUBLIC "-//W3C//DTD SVG 1.1//EN" "http://www.w3.org/Graphics/SVG/1.1/DTD/svg11.dtd">
<svg width="1135pt" height="472pt" viewBox="0 0 1135 472" version="1.1" xmlns="http://www.w3.org/2000/svg">
<g id="#ffffffff">
<path fill="#ffffff" opacity="1.00" d=" M 0.00 2.00 C 33.22 2.01 66.44 1.99 99.67 2.01 C 118.59 46.53 137.53 91.05 156.48 135.56 C 157.42 137.96 158.91 140.29 158.89 142.96 C 158.86 182.66 158.89 222.36 158.87 262.06 C 128.04 262.06 97.21 262.08 66.38 262.05 C 66.38 229.36 66.35 196.67 66.40 163.98 C 66.53 160.32 64.36 157.18 63.14 153.87 C 42.09 103.92 21.07 53.97 0.00 4.03 L 0.00 2.00 Z" />
<path fill="#ffffff" opacity="1.00" d=" M 121.93 2.00 C 154.63 2.00 187.33 2.00 220.03 2.00 C 203.61 39.90 187.22 77.80 170.78 115.68 C 154.47 77.80 138.21 39.90 121.93 2.00 Z" />
<path fill="#ffffff" opacity="1.00" d=" M 599.18 2.01 C 622.93 1.99 646.68 2.00 670.44 2.00 C 670.44 88.69 670.44 175.37 670.43 262.06 C 646.69 262.07 622.94 262.07 599.19 262.06 C 599.18 175.37 599.19 88.69 599.18 2.01 Z" />
<path fill="#ffffff" opacity="1.00" d=" M 418.26 102.26 C 433.13 84.76 456.02 76.64 478.24 73.95 C 478.25 137.32 478.25 200.68 478.24 264.04 C 460.85 262.18 443.23 257.42 428.98 246.90 C 415.91 237.38 406.84 223.10 402.11 207.77 C 396.90 190.90 396.15 172.95 397.67 155.46 C 399.43 136.33 405.53 116.99 418.26 102.26 Z" />
<path fill="#ffffff" opacity="1.00" d=" M 498.56 73.96 C 516.27 76.19 534.15 81.49 548.40 92.61 C 562.56 103.52 571.73 119.86 576.10 137.00 C 580.91 156.23 581.74 176.62 577.08 195.96 C 573.72 210.99 568.16 226.04 557.53 237.50 C 549.23 246.69 538.86 254.24 527.08 258.29 C 517.88 261.38 508.23 263.01 498.55 263.65 C 498.58 200.42 498.55 137.19 498.56 73.96 Z" />
<path fill="#ffffff" opacity="1.00" d=" M 280.79 76.97 C 297.28 75.41 314.15 72.72 330.53 76.60 C 344.53 79.78 358.37 87.78 365.08 100.92 C 372.19 114.76 373.26 130.72 373.25 146.00 C 373.24 185.08 373.26 224.17 373.25 263.25 C 349.75 263.25 326.25 263.25 302.75 263.25 C 302.74 219.82 302.75 176.40 302.75 132.98 C 302.83 122.21 302.22 111.26 299.02 100.91 C 295.90 91.10 288.58 83.37 280.79 76.97 Z" />
<path fill="#ffffff" opacity="1.00" d=" M 858.91 77.09 C 875.55 75.19 892.72 72.75 909.28 76.78 C 923.01 80.06 936.50 88.02 943.08 100.94 C 949.73 113.85 951.10 128.69 951.24 142.99 C 951.27 183.07 951.25 223.16 951.25 263.25 C 927.75 263.25 904.25 263.25 880.75 263.25 C 880.74 219.82 880.75 176.39 880.75 132.96 C 880.83 122.20 880.22 111.28 877.03 100.95 C 873.93 91.19 866.69 83.44 858.91 77.09 Z" />
<path fill="#ffffff" opacity="1.00" d=" M 245.47 77.60 C 254.36 76.01 263.93 77.48 271.54 82.49 C 279.44 87.67 285.90 95.54 288.17 104.83 C 290.34 113.73 289.20 123.54 284.45 131.43 C 277.48 142.95 264.61 151.20 250.94 150.98 C 236.35 150.82 223.47 140.22 218.10 127.06 C 214.05 116.67 214.85 104.29 220.88 94.81 C 226.37 86.16 235.22 79.33 245.47 77.60 Z" />
<path fill="#ffffff" opacity="1.00" d=" M 690.75 77.00 C 703.94 76.99 717.26 77.76 730.07 81.11 C 736.99 83.03 743.98 85.73 749.31 90.71 C 754.61 95.84 757.53 102.88 759.40 109.90 C 762.21 120.68 762.79 131.89 762.82 142.99 C 762.81 182.68 762.82 222.37 762.81 262.05 C 738.79 262.07 714.77 262.06 690.75 262.06 C 690.74 200.37 690.75 138.69 690.75 77.00 Z" />
<path fill="#ffffff" opacity="1.00" d=" M 823.46 77.60 C 832.35 76.01 841.93 77.48 849.54 82.49 C 857.42 87.66 863.87 95.50 866.16 104.77 C 868.34 113.67 867.22 123.50 862.46 131.41 C 855.34 143.21 841.98 151.61 827.98 150.93 C 808.93 150.07 792.97 131.88 793.61 113.00 C 793.54 96.16 806.98 80.55 823.46 77.60 Z" />
<path fill="#ffffff" opacity="1.00" d=" M 970.18 77.01 C 993.93 76.99 1017.68 77.00 1041.44 77.00 C 1041.44 138.67 1041.44 200.33 1041.44 262.00 C 1017.69 262.02 993.94 262.10 970.19 262.05 C 970.18 200.37 970.19 138.69 970.18 77.01 Z" />
<path fill="#ffffff" opacity="1.00" d=" M 1061.75 77.00 C 1075.45 77.01 1089.34 77.80 1102.59 81.54 C 1110.28 83.83 1118.20 87.27 1123.14 93.89 C 1128.77 101.46 1131.05 110.88 1132.43 120.05 C 1134.49 134.63 1133.63 149.38 1133.81 164.04 C 1133.82 196.69 1133.81 229.34 1133.82 261.99 C 1109.79 262.01 1085.77 262.00 1061.75 261.99 C 1061.75 200.33 1061.75 138.66 1061.75 77.00 Z" />
<path fill="#ffffff" opacity="1.00" d=" M 228.16 169.09 C 245.18 162.64 263.48 159.98 281.63 160.00 C 281.58 194.43 281.72 228.86 281.56 263.29 C 266.80 264.95 251.62 263.42 237.60 258.45 C 226.86 254.65 217.37 246.96 212.24 236.70 C 205.16 223.48 205.16 207.63 208.53 193.34 C 211.00 182.87 217.89 173.06 228.16 169.09 Z" />
<path fill="#ffffff" opacity="1.00" d=" M 806.08 169.12 C 823.12 162.64 841.45 159.98 859.63 160.00 C 859.59 194.42 859.68 228.85 859.59 263.27 C 845.07 264.95 830.16 263.45 816.33 258.71 C 805.30 254.98 795.50 247.22 790.25 236.73 C 783.16 223.50 783.16 207.64 786.53 193.33 C 789.00 182.90 795.85 173.10 806.08 169.12 Z" />
<path fill="#ffffff" opacity="1.00" d=" M 580.00 314.50 C 584.77 314.50 589.54 314.49 594.31 314.51 C 594.31 334.23 594.31 353.96 594.31 373.68 C 610.69 373.70 627.06 373.68 643.43 373.69 C 643.44 378.46 643.44 383.23 643.44 388.00 C 627.06 388.01 610.68 387.98 594.31 388.01 C 594.32 397.32 594.31 406.62 594.31 415.93 C 611.52 415.96 628.72 415.92 645.93 415.94 C 645.94 420.71 645.94 425.48 645.93 430.25 C 628.73 430.26 611.52 430.24 594.31 430.26 C 594.31 443.17 594.32 456.08 594.31 468.99 C 589.54 469.00 584.77 469.00 580.00 469.00 C 579.99 456.08 580.02 443.16 579.99 430.24 C 563.47 430.30 546.94 430.16 530.42 430.31 C 530.18 425.53 530.36 420.74 530.31 415.95 C 546.87 415.92 563.43 415.95 579.99 415.94 C 580.01 406.63 580.00 397.31 580.00 388.00 C 564.56 387.99 549.12 388.01 533.69 388.00 C 533.68 383.23 533.68 378.46 533.69 373.69 C 549.12 373.68 564.55 373.68 579.99 373.69 C 580.02 353.96 579.99 334.23 580.00 314.50 Z" />
<path fill="#ffffff" opacity="1.00" d=" M 895.74 316.82 C 900.47 315.79 905.20 314.78 909.93 313.78 C 919.93 345.83 924.74 379.23 927.78 412.59 C 922.99 413.38 918.19 414.08 913.40 414.81 C 909.88 381.80 905.46 348.65 895.74 316.82 Z" />
<path fill="#ffffff" opacity="1.00" d=" M 489.33 385.84 C 505.08 364.99 514.63 340.01 518.87 314.35 C 523.57 315.11 528.27 315.94 532.99 316.66 C 530.66 328.71 527.18 340.51 523.42 352.18 C 523.16 390.90 523.39 429.64 523.31 468.37 C 518.54 468.38 513.77 468.38 509.00 468.37 C 508.99 439.78 509.02 411.18 508.99 382.58 C 506.92 385.67 504.86 388.76 502.82 391.86 C 498.31 389.87 493.82 387.85 489.33 385.84 Z" />
<path fill="#ffffff" opacity="1.00" d=" M 729.25 315.07 C 734.18 315.05 739.12 315.06 744.06 315.07 C 744.07 324.44 744.05 333.81 744.07 343.18 C 764.42 343.24 784.77 343.09 805.12 343.25 C 807.74 343.08 810.16 345.23 809.99 347.93 C 810.15 375.43 810.02 402.93 810.06 430.43 C 805.03 430.44 800.02 430.44 795.00 430.44 C 794.99 427.95 794.99 425.48 795.00 423.00 C 778.02 423.00 761.04 422.99 744.06 423.01 C 744.06 438.33 744.07 453.66 744.06 469.00 C 739.12 469.00 734.18 469.01 729.24 468.99 C 729.25 453.66 729.25 438.33 729.25 423.01 C 712.18 422.99 695.12 423.00 678.06 423.00 C 678.06 425.48 678.05 427.95 678.06 430.43 C 673.03 430.44 668.02 430.44 663.00 430.43 C 663.01 402.94 662.98 375.43 663.02 347.94 C 662.67 345.12 665.24 342.93 667.96 343.22 C 688.38 343.13 708.81 343.22 729.24 343.18 C 729.25 333.81 729.25 324.44 729.25 315.07 M 678.08 359.97 C 678.03 375.96 678.07 391.95 678.06 407.93 C 695.12 407.94 712.18 407.94 729.25 407.93 C 729.25 391.29 729.25 374.65 729.25 358.01 C 713.13 358.00 697.01 357.98 680.89 358.01 C 679.65 357.95 677.70 358.25 678.08 359.97 M 744.06 358.01 C 744.06 374.65 744.06 391.29 744.06 407.93 C 761.04 407.94 778.02 407.93 794.99 407.94 C 794.95 391.96 795.10 375.97 794.92 359.99 C 795.10 358.32 793.28 357.88 792.01 358.01 C 776.03 357.98 760.04 358.00 744.06 358.01 Z" />
<path fill="#ffffff" opacity="1.00" d=" M 322.36 393.60 C 336.89 370.15 345.47 343.22 347.64 315.74 C 352.39 316.29 357.16 316.67 361.93 317.13 C 360.20 329.84 358.21 342.56 354.74 354.93 C 354.01 357.56 354.37 360.31 354.31 363.00 C 354.31 398.35 354.32 433.70 354.31 469.06 C 349.54 469.06 344.77 469.06 340.00 469.06 C 339.99 443.48 340.02 417.89 339.99 392.31 C 338.77 394.42 337.55 396.53 336.33 398.64 C 331.67 396.96 327.03 395.24 322.36 393.60 Z" />
<path fill="#ffffff" opacity="1.00" d=" M 628.27 319.20 C 632.60 321.35 637.08 323.22 641.29 325.62 C 635.73 340.33 628.27 354.23 619.77 367.43 C 615.54 365.14 611.32 362.83 607.11 360.51 C 615.15 347.29 622.93 333.78 628.27 319.20 Z" />
<path fill="#ffffff" opacity="1.00" d=" M 365.69 320.51 C 403.08 320.48 440.47 320.52 477.86 320.49 C 477.89 325.24 477.88 330.00 477.87 334.75 C 459.92 334.75 441.96 334.75 424.01 334.75 C 422.32 340.91 420.66 347.08 419.00 353.25 C 434.67 353.24 450.33 353.26 466.00 353.24 C 467.58 353.27 469.36 353.25 470.64 354.36 C 472.23 355.76 472.00 358.04 472.08 359.95 C 472.03 395.82 472.10 431.69 472.04 467.56 C 467.27 467.55 462.50 467.60 457.73 467.53 C 457.73 465.21 457.75 462.90 457.81 460.59 C 433.56 460.39 409.31 460.55 385.06 460.51 C 385.09 462.87 385.07 465.23 384.96 467.60 C 380.22 467.50 375.47 467.63 370.73 467.51 C 370.79 431.00 370.71 394.49 370.76 357.99 C 370.47 355.51 372.48 353.17 375.00 353.29 C 384.57 353.16 394.14 353.31 403.70 353.23 C 405.47 347.07 407.26 340.91 409.03 334.75 C 394.59 334.75 380.14 334.75 365.70 334.75 C 365.67 330.00 365.69 325.26 365.69 320.51 M 385.13 367.88 C 384.99 378.51 385.09 389.13 385.07 399.75 C 409.30 399.74 433.52 399.76 457.75 399.75 C 457.68 389.56 457.88 379.37 457.66 369.19 C 457.75 367.20 455.28 367.57 454.00 367.49 C 434.01 367.52 414.01 367.49 394.02 367.50 C 391.05 367.51 388.06 367.30 385.13 367.88 M 385.06 414.00 C 385.06 424.75 385.05 435.50 385.07 446.25 C 409.29 446.24 433.52 446.26 457.75 446.24 C 457.75 435.50 457.74 424.75 457.75 414.01 C 433.52 413.99 409.29 414.00 385.06 414.00 Z" />
<path fill="#ffffff" opacity="1.00" d=" M 198.13 320.69 C 221.43 320.70 244.74 320.66 268.04 320.71 C 270.59 320.32 272.88 322.40 272.99 324.92 C 275.97 355.71 279.94 386.73 290.15 416.08 C 295.69 432.21 303.31 447.54 311.81 462.30 C 306.63 463.98 301.46 465.69 296.28 467.35 C 287.43 448.90 278.98 430.13 273.45 410.38 C 267.03 385.65 262.59 360.45 258.89 335.19 C 238.64 334.75 218.38 335.13 198.12 334.99 C 198.12 330.23 198.12 325.46 198.13 320.69 Z" />
<path fill="#ffffff" opacity="1.00" d=" M 536.17 327.13 C 540.44 324.91 544.74 322.73 549.03 320.54 C 557.31 333.29 563.39 347.31 568.78 361.48 C 564.34 363.53 559.85 365.46 555.38 367.42 C 549.92 353.58 544.04 339.80 536.17 327.13 Z" />
<path fill="#ffffff" opacity="1.00" d=" M 867.00 325.00 C 872.02 325.00 877.04 324.99 882.06 325.01 C 882.08 365.03 882.03 405.07 882.09 445.09 C 881.88 448.88 885.22 451.79 888.87 451.82 C 901.24 452.11 913.62 451.83 926.00 451.95 C 929.75 452.04 934.07 451.65 936.71 448.62 C 939.39 445.43 939.70 441.03 939.88 437.05 C 940.07 428.61 939.78 420.16 939.63 411.72 C 944.57 412.52 949.54 413.23 954.47 414.13 C 954.64 426.10 955.29 438.13 953.98 450.06 C 953.53 455.12 951.42 460.12 947.42 463.37 C 943.86 466.81 938.61 466.92 933.98 467.02 C 917.65 467.10 901.32 467.07 884.99 467.04 C 879.79 467.12 874.27 465.27 871.10 460.95 C 867.22 455.88 866.75 449.18 866.98 443.02 C 867.03 403.68 866.98 364.34 867.00 325.00 Z" />
<path fill="#ffffff" opacity="1.00" d=" M 947.51 336.42 C 952.16 335.42 956.81 334.40 961.47 333.40 C 973.06 369.19 978.53 406.62 982.13 443.97 C 977.35 444.77 972.58 445.55 967.81 446.34 C 963.68 409.30 958.68 372.09 947.51 336.42 Z" />
<path fill="#ffffff" opacity="1.00" d=" M 838.00 339.95 C 842.85 340.29 847.71 340.59 852.56 340.98 C 853.12 377.37 847.79 413.55 840.89 449.19 C 836.11 448.62 831.33 448.07 826.56 447.50 C 832.89 412.00 838.27 376.10 838.00 339.95 Z" />
<path fill="#ffffff" opacity="1.00" d=" M 187.36 355.95 C 192.31 356.34 197.24 356.83 202.19 357.27 C 198.15 395.48 189.77 434.29 169.65 467.51 C 164.73 465.99 159.85 464.37 154.94 462.81 C 173.88 430.36 185.44 393.52 187.36 355.95 Z" />
</g>
</svg>
