<?xml version="1.0" encoding="UTF-8" ?>
<!DOCTYPE svg PUBLIC "-//W3C//DTD SVG 1.1//EN" "http://www.w3.org/Graphics/SVG/1.1/DTD/svg11.dtd">
<svg width="120pt" height="120pt" viewBox="0 0 120 120" version="1.1" xmlns="http://www.w3.org/2000/svg">
<g id="#00a05cff">
<path fill="#00a05c" opacity="1.00" d=" M 9.24 0.00 L 56.73 0.00 C 65.36 20.10 73.71 40.31 82.28 60.43 C 83.49 63.12 83.00 66.13 83.06 68.98 C 83.06 85.99 83.06 102.99 83.06 120.00 L 39.38 120.00 C 39.37 104.66 39.37 89.32 39.38 73.99 C 39.46 71.43 38.07 69.19 37.17 66.89 C 27.85 44.60 18.57 22.29 9.24 0.00 Z" />
<path fill="#00a05c" opacity="1.00" d=" M 67.27 0.00 L 110.33 0.00 C 102.97 16.49 96.07 33.20 88.65 49.66 C 81.52 33.11 74.47 16.52 67.27 0.00 Z" />
</g>
</svg>
