<?xml version="1.0" standalone="no"?>
<!DOCTYPE svg PUBLIC "-//W3C//DTD SVG 20010904//EN"
 "http://www.w3.org/TR/2001/REC-SVG-20010904/DTD/svg10.dtd">
<svg version="1.0" xmlns="http://www.w3.org/2000/svg"
 width="700.000000pt" height="700.000000pt" viewBox="0 0 700.000000 700.000000"
 preserveAspectRatio="xMidYMid meet">
<metadata>
Created by potrace 1.11, written by Peter Selinger 2001-2013
</metadata>
<g transform="translate(0.000000,700.000000) scale(0.100000,-0.100000)"
fill="#000000" stroke="none">
<path d="M561 6948 c11 -29 27 -66 34 -83 8 -16 30 -70 50 -120 21 -49 43
-103 50 -120 8 -16 55 -129 105 -250 50 -121 95 -229 100 -240 15 -34 110
-260 295 -705 97 -234 187 -450 200 -480 22 -51 48 -114 142 -340 19 -47 46
-109 59 -138 13 -29 24 -55 24 -57 0 -2 66 -161 146 -352 80 -191 165 -395
189 -453 37 -90 204 -488 283 -675 63 -149 59 -51 60 -1531 0 -742 1 -1361 1
-1377 l1 -27 1273 2 1272 3 0 1645 c1 1180 -3 1662 -11 1705 -10 53 -49 162
-89 250 -38 82 -115 271 -115 282 0 7 -4 13 -10 13 -5 0 -10 6 -10 13 0 11
-30 86 -89 222 -29 65 -54 126 -201 475 -144 344 -179 426 -225 535 -7 17 -75
176 -150 355 -75 179 -142 336 -148 350 -5 14 -11 27 -12 30 -4 13 -99 237
-125 295 -10 22 -52 121 -93 220 -42 99 -117 275 -166 390 l-89 210 -1386 3
-1386 2 21 -52z"/>
<path d="M3930 6993 c0 -5 36 -91 81 -193 128 -295 176 -407 569 -1320 204
-476 378 -878 386 -894 8 -16 14 -33 14 -37 0 -4 13 -36 29 -71 16 -35 48
-108 71 -163 62 -146 90 -208 94 -204 2 2 18 38 36 79 36 82 66 150 111 248
16 35 29 65 29 67 0 3 13 33 29 67 37 82 100 227 278 638 79 184 151 349 158
365 8 17 80 183 160 370 81 187 153 354 160 370 8 17 60 136 116 265 55 129
119 272 140 318 21 46 39 87 39 93 0 5 -476 9 -1250 9 -687 0 -1250 -3 -1250
-7z"/>
</g>
</svg>
