<?xml version="1.0" standalone="no"?>
<!DOCTYPE svg PUBLIC "-//W3C//DTD SVG 20010904//EN"
 "http://www.w3.org/TR/2001/REC-SVG-20010904/DTD/svg10.dtd">
<svg version="1.0" xmlns="http://www.w3.org/2000/svg"
 width="700.000000pt" height="700.000000pt" viewBox="0 0 700.000000 700.000000"
 preserveAspectRatio="xMidYMid meet">
<metadata>
Created by potrace 1.11, written by Peter Selinger 2001-2013
</metadata>
<g transform="translate(0.000000,700.000000) scale(0.100000,-0.100000)"
fill="#000000" stroke="none">
<path d="M658 6990 c-303 -52 -544 -269 -630 -567 l-23 -78 0 -2845 0 -2845
23 -78 c77 -268 271 -464 542 -549 l75 -23 2850 0 c3213 0 2893 -8 3070 80
231 114 389 334 425 591 13 99 14 5550 0 5645 -24 168 -90 306 -205 427 -106
112 -219 182 -370 228 -57 18 -185 19 -2885 20 -1554 1 -2846 -2 -2872 -6z
m3228 -2354 l564 -1329 0 -1163 0 -1164 -880 0 -880 0 0 961 0 961 -640 1524
c-352 838 -640 1529 -640 1534 0 7 325 9 956 8 l957 -3 563 -1329z m1734 1328
c0 -16 -934 -2163 -939 -2158 -11 11 -927 2150 -924 2157 5 9 1863 10 1863 1z"/>
</g>
</svg>
