<?xml version="1.0" encoding="UTF-8" ?>
<!DOCTYPE svg PUBLIC "-//W3C//DTD SVG 1.1//EN" "http://www.w3.org/Graphics/SVG/1.1/DTD/svg11.dtd">
<svg width="227pt" height="81pt" viewBox="0 0 227 81" version="1.1" xmlns="http://www.w3.org/2000/svg">
<g id="#ffffffff">
</g>
<g id="#00a05cff">
<path fill="#00a05c" opacity="1.00" d=" M 16.55 2.55 C 25.36 2.56 34.17 2.54 42.98 2.54 C 46.00 2.47 49.54 3.16 51.22 5.96 C 53.50 9.58 52.61 14.05 53.36 18.07 C 55.30 31.04 59.13 44.42 67.98 54.45 C 68.00 62.20 68.04 69.95 67.96 77.71 C 55.34 68.44 48.16 53.59 43.85 38.90 C 41.85 32.01 40.85 24.89 39.95 17.79 C 32.16 18.28 24.35 17.72 16.55 18.26 C 16.54 13.02 16.55 7.78 16.55 2.55 Z" />
<path fill="#00a05c" opacity="1.00" d=" M 88.21 2.59 C 91.61 2.54 95.02 2.54 98.43 2.54 C 97.64 8.41 96.94 14.32 95.45 20.07 C 94.76 22.68 95.02 25.41 95.00 28.08 C 95.00 44.72 95.00 61.36 95.00 78.00 C 91.52 78.00 88.03 78.00 84.55 78.00 C 84.63 67.34 84.52 56.69 84.22 46.04 C 82.54 48.21 80.67 50.22 78.64 52.05 C 78.48 47.03 78.56 42.00 78.54 36.97 C 78.36 34.13 80.66 32.06 81.56 29.53 C 85.13 20.96 86.91 11.75 88.21 2.59 Z" />
<path fill="#00a05c" opacity="1.00" d=" M 101.79 2.79 C 116.19 2.78 130.59 2.78 145.00 2.79 C 145.00 7.20 145.00 11.60 145.00 16.00 C 139.49 16.02 133.98 15.96 128.48 16.04 C 127.89 19.17 127.26 22.30 126.60 25.42 C 131.39 25.79 136.20 25.27 140.99 25.70 C 144.13 26.52 144.90 30.12 144.81 32.94 C 144.80 47.95 144.80 62.97 144.80 77.99 C 130.60 78.00 116.40 78.00 102.20 77.99 C 102.19 60.67 102.19 43.34 102.20 26.01 C 106.40 25.99 110.61 26.00 114.82 26.00 C 115.58 22.74 116.26 19.47 117.01 16.21 C 111.94 16.35 106.87 15.99 101.80 15.98 C 101.78 11.58 101.79 7.19 101.79 2.79 M 113.87 37.21 C 113.79 40.13 113.77 43.06 113.81 45.99 C 120.39 46.00 126.97 46.01 133.56 45.98 C 133.55 43.06 133.54 40.14 133.53 37.22 C 126.98 37.20 120.42 37.22 113.87 37.21 M 113.49 57.52 C 113.44 60.51 113.44 63.50 113.50 66.49 C 120.00 66.65 126.51 66.43 133.01 66.63 C 133.32 63.56 133.27 60.48 133.06 57.41 C 126.53 57.53 120.01 57.35 113.49 57.52 Z" />
<path fill="#00a05c" opacity="1.00" d=" M 168.07 2.55 C 171.45 2.55 174.83 2.55 178.21 2.55 C 177.55 9.47 175.87 16.23 174.82 23.07 C 174.78 41.38 174.82 59.69 174.80 77.99 C 171.26 78.01 167.73 78.01 164.19 77.99 C 164.31 67.25 164.07 56.51 164.03 45.77 C 162.45 48.09 160.60 50.22 158.43 52.01 C 158.02 46.44 158.12 40.81 158.31 35.23 C 164.28 25.36 166.22 13.76 168.07 2.55 Z" />
<path fill="#00a05c" opacity="1.00" d=" M 180.96 2.64 C 183.92 2.52 186.88 2.52 189.84 2.53 C 190.95 8.33 191.82 14.18 192.88 19.99 C 189.92 20.00 186.96 20.00 184.01 19.99 C 182.91 14.22 182.21 8.38 180.96 2.64 Z" />
<path fill="#00a05c" opacity="1.00" d=" M 195.74 2.56 C 199.98 2.54 204.21 2.54 208.45 2.55 C 208.45 10.36 208.46 18.17 208.44 25.98 C 213.45 26.02 218.45 25.98 223.45 26.01 C 223.45 30.41 223.45 34.81 223.45 39.21 C 218.48 39.21 213.51 39.24 208.54 39.18 C 208.86 42.44 208.85 45.71 208.79 48.98 C 213.67 48.98 218.57 49.14 223.44 48.76 C 223.46 53.25 223.44 57.73 223.45 62.21 C 218.46 62.22 213.46 62.20 208.46 62.23 C 208.44 67.48 208.46 72.74 208.45 77.99 C 204.30 78.00 200.15 78.00 196.00 78.00 C 195.99 72.67 196.01 67.34 195.99 62.01 C 190.73 61.99 185.47 62.00 180.21 62.01 C 180.80 57.78 180.46 53.50 180.57 49.25 C 185.64 48.93 190.72 48.99 195.79 49.00 C 195.79 45.73 195.79 42.47 195.78 39.21 C 190.70 39.21 185.62 39.22 180.54 39.21 C 180.77 34.88 180.18 30.58 180.22 26.25 C 185.55 26.14 190.87 26.22 196.19 26.19 C 195.72 18.32 196.29 10.43 195.74 2.56 Z" />
<path fill="#00a05c" opacity="1.00" d=" M 214.85 2.83 C 217.80 2.63 220.75 2.51 223.71 2.51 C 222.63 8.29 221.49 14.06 220.25 19.81 C 217.47 19.80 214.69 19.80 211.91 19.80 C 212.98 14.16 213.74 8.46 214.85 2.83 Z" />
<path fill="#00a05c" opacity="1.00" d=" M 16.59 28.71 C 21.09 28.98 25.60 29.06 30.10 29.00 C 26.02 47.46 17.94 66.05 3.02 78.30 C 2.98 71.01 3.00 63.71 3.01 56.42 C 10.23 48.81 14.22 38.78 16.59 28.71 Z" />
</g>
</svg>
